# xmcd
#
# Track frame offsets:
#	150
#	12336
#	24310
#	37614
#	50618
#	65165
#	76649
#	87784
#	98548
#	111739
#	121082
#	130841
#	142286
#	154252
#	165970
#	179147
#	192280
#	202904
#	213595
#	224337
#
# Disc length: 3110 seconds
# Revision: 0
# Processed by: cddbd v1.5.2PL0 Copyright (c) Steve Scherf et al.
# Submitted via: dBpowerAMP V12.0
#
DISCID=150c2414
DTITLE=Various Artist - Mega Country [Cd 2]
DYEAR=1900
DGENRE=Country
TTITLE0=LYNN ANDERSON - STAND BY YOUR MAN 
TTITLE1=WAYLON JENNINGS - DON'T THINK TWICE, IT'S ALRIGHT
TTITLE2=ALABAMA - PATCHES
TTITLE3=KENNY ROGERS - RUBY DON'T TAKE YOUR LOVE TO TOWN
TTITLE4=PORTER WAGONER - GREEN GREEN GRASS OF HOME
TTITLE5=DON GIBSON - I CAN'T STOP LOVING YOU
TTITLE6=JOHNNY TILLOTSON - RAINING IN MY HEART
TTITLE7=DOLLY PARTON - I T WASN'T GOD WHO MADE HONKY TONK ANGELS
TTITLE8=HANK WILLIAMS - HEY GOOD LOOKIN'
TTITLE9=ELVIS PRESLEY - I'M GONNA SIT RIGHT DOWN AND CRY OVER YOU
TTITLE10=MICKEY GILLEY - FRAULEIN
TTITLE11=CARL SMITH - LOOSE TALK
TTITLE12=JOHNNY CASH - GIVE MY LOVE TO ROSE 
TTITLE13=DONNA FARGO - THE HAPPIEST GIRL IN THE USA
TTITLE14=KITTY WELLS and RED FOLEY - ONE BY ONE
TTITLE15=DAVE DUDDLEY - THE POOL SHARK
TTITLE16=PATSY CLINE - HONK TONK MERRY GOOD ROUND
TTITLE17=JANIE FRICKE - DOWN TO MY LAST BROKEN HEART
TTITLE18=FERLIN HUSKY - WINGS OF A DOVE
TTITLE19=FRANKIE LAINE - RAWHIDE
EXTD=
EXTT0=
EXTT1=
EXTT2=
EXTT3=
EXTT4=
EXTT5=
EXTT6=
EXTT7=
EXTT8=
EXTT9=
EXTT10=
EXTT11=
EXTT12=
EXTT13=
EXTT14=
EXTT15=
EXTT16=
EXTT17=
EXTT18=
EXTT19=
PLAYORDER=
